<svg width="16" height="16" viewBox="0 0 16 16" fill="none" xmlns="http://www.w3.org/2000/svg">
<path fill-rule="evenodd" clip-rule="evenodd" d="M1.5092 0C1.79121 0 2.01983 0.233855 2.01983 0.52233V1.02144H2.50779C2.78981 1.02144 3.01843 1.25532 3.01843 1.54382C3.01843 1.83232 2.78981 2.0662 2.50779 2.0662H2.01983V2.56522C2.01983 2.8537 1.79121 3.08755 1.5092 3.08755C1.22719 3.08755 0.998573 2.8537 0.998573 2.56522V2.0662H0.510636C0.228619 2.0662 0 1.83232 0 1.54382C0 1.25532 0.228619 1.02144 0.510636 1.02144H0.998573V0.52233C0.998573 0.233855 1.22719 0 1.5092 0ZM15.0014 5.11891C15.0014 4.83043 14.7727 4.59656 14.4907 4.59656C14.2087 4.59656 13.9801 4.83043 13.9801 5.11891V5.61807H13.4922C13.2102 5.61807 12.9816 5.85191 12.9816 6.14036C12.9816 6.42882 13.2102 6.66265 13.4922 6.66265H13.9801V7.16186C13.9801 7.45034 14.2087 7.6842 14.4907 7.6842C14.7727 7.6842 15.0014 7.45034 15.0014 7.16186V6.66265H15.4894C15.7714 6.66265 16 6.42882 16 6.14036C16 5.85191 15.7714 5.61807 15.4894 5.61807H15.0014V5.11891Z" fill="#0063F5"/>
<rect x="2.6665" y="2.78261" width="9.33331" height="2.78261" rx="1" fill="#0063F5"/>
<rect x="2.6665" y="6.26086" width="9.33331" height="2.78261" rx="1" fill="#0063F5"/>
<rect x="5.33325" y="9.73914" width="9.33331" height="2.78261" rx="1" fill="#0063F5"/>
<rect x="3.3335" y="13.2174" width="9.33331" height="2.78261" rx="1" fill="#0063F5"/>
</svg>
