<svg width="24" height="24" viewBox="0 0 24 24" fill="none" xmlns="http://www.w3.org/2000/svg">
<path d="M5 10C7.76142 10 10 7.76142 10 5C10 2.23858 7.76142 0 5 0C2.23858 0 0 2.23858 0 5C0 7.76142 2.23858 10 5 10Z" fill="white"/>
<path d="M19 10C21.7614 10 24 7.76142 24 5C24 2.23858 21.7614 0 19 0C16.2386 0 14 2.23858 14 5C14 7.76142 16.2386 10 19 10Z" fill="white"/>
<path d="M5 24C7.76142 24 10 21.7614 10 19C10 16.2386 7.76142 14 5 14C2.23858 14 0 16.2386 0 19C0 21.7614 2.23858 24 5 24Z" fill="white"/>
<path d="M19 24C21.7614 24 24 21.7614 24 19C24 16.2386 21.7614 14 19 14C16.2386 14 14 16.2386 14 19C14 21.7614 16.2386 24 19 24Z" fill="white"/>
</svg>
