<svg width="16" height="16" viewBox="0 0 16 16" fill="none" xmlns="http://www.w3.org/2000/svg">
<path d="M15.788 5.76333C15.7241 5.70346 15.649 5.65677 15.567 5.62594C15.485 5.59511 15.3977 5.58074 15.3102 5.58365C15.2226 5.58656 15.1365 5.6067 15.0568 5.6429C14.977 5.67911 14.9052 5.73068 14.8453 5.79466C13.62 7.10466 13 8.04266 13 8.58333V13.5833C13 13.7601 12.9298 13.9297 12.8047 14.0547C12.6797 14.1798 12.5101 14.25 12.3333 14.25C12.1565 14.25 11.987 14.1798 11.8619 14.0547C11.7369 13.9297 11.6667 13.7601 11.6667 13.5833V4.58333C11.6667 4.1413 11.4911 3.71738 11.1785 3.40482C10.8659 3.09226 10.442 2.91666 10 2.91666H9.83467C9.79046 2.91666 9.74807 2.8991 9.71681 2.86785C9.68556 2.83659 9.668 2.7942 9.668 2.75V1.58333C9.66765 1.27402 9.54462 0.977479 9.3259 0.758763C9.10719 0.540047 8.81064 0.417017 8.50133 0.416664H1.168C0.858512 0.41684 0.561731 0.539771 0.342765 0.758487C0.123799 0.977203 0.000529593 1.27384 0 1.58333L0 14.25C0.000528796 14.5593 0.123615 14.8557 0.342293 15.0744C0.560971 15.293 0.85741 15.4161 1.16667 15.4167H8.5C8.80931 15.4163 9.10585 15.2933 9.32457 15.0746C9.54328 14.8558 9.66631 14.5593 9.66667 14.25V4.41666C9.66667 4.37246 9.68423 4.33007 9.71548 4.29881C9.74674 4.26756 9.78913 4.25 9.83333 4.25H10C10.0884 4.25 10.1732 4.28512 10.2357 4.34763C10.2982 4.41014 10.3333 4.49493 10.3333 4.58333V13.5833C10.3333 14.1138 10.544 14.6225 10.9191 14.9975C11.2942 15.3726 11.8029 15.5833 12.3333 15.5833C12.8638 15.5833 13.3725 15.3726 13.7475 14.9975C14.1226 14.6225 14.3333 14.1138 14.3333 13.5833V12.0987C14.3332 12.0677 14.3417 12.0372 14.358 12.0109C14.3743 11.9845 14.3976 11.9631 14.4253 11.9493L15.114 11.6047C15.2804 11.5221 15.4203 11.3945 15.518 11.2366C15.6156 11.0786 15.6671 10.8964 15.6667 10.7107V9.91666C15.6667 9.65145 15.5613 9.39709 15.3738 9.20956C15.1862 9.02202 14.9319 8.91666 14.6667 8.91666H14.4933C14.4494 8.91667 14.4072 8.89929 14.3759 8.86832C14.3447 8.83735 14.327 8.7953 14.3267 8.75133V8.64733C14.7363 7.93676 15.2385 7.28372 15.82 6.70533C15.9406 6.57615 16.005 6.40435 15.999 6.22771C15.993 6.05106 15.9171 5.88403 15.788 5.76333ZM7.166 10.4167C7.166 10.5051 7.13088 10.5899 7.06837 10.6524C7.00586 10.7149 6.92107 10.75 6.83267 10.75H6.166C6.07759 10.75 5.99281 10.7149 5.9303 10.6524C5.86779 10.5899 5.83267 10.5051 5.83267 10.4167V8.41666C5.83267 8.32826 5.86779 8.24347 5.9303 8.18096C5.99281 8.11845 6.07759 8.08333 6.166 8.08333H6.83267C6.92107 8.08333 7.00586 8.11845 7.06837 8.18096C7.13088 8.24347 7.166 8.32826 7.166 8.41666V10.4167ZM7.83267 4.58333C7.83267 4.67174 7.79755 4.75652 7.73503 4.81903C7.67252 4.88155 7.58774 4.91666 7.49933 4.91666H2.166C2.07759 4.91666 1.99281 4.88155 1.9303 4.81903C1.86779 4.75652 1.83267 4.67174 1.83267 4.58333V2.58333C1.83267 2.49493 1.86779 2.41014 1.9303 2.34763C1.99281 2.28512 2.07759 2.25 2.166 2.25H7.49933C7.58774 2.25 7.67252 2.28512 7.73503 2.34763C7.79755 2.41014 7.83267 2.49493 7.83267 2.58333V4.58333Z" fill="#0063F5"/>
</svg>
