<svg width="24" height="24" viewBox="0 0 24 24" fill="none" xmlns="http://www.w3.org/2000/svg">
<path d="M23.682 8.645C23.5861 8.55519 23.4734 8.48517 23.3504 8.43892C23.2275 8.39268 23.0966 8.37112 22.9653 8.37548C22.8339 8.37985 22.7048 8.41005 22.5851 8.46436C22.4655 8.51867 22.3577 8.59602 22.268 8.692C20.43 10.657 19.5 12.064 19.5 12.875V20.375C19.5 20.6402 19.3946 20.8946 19.2071 21.0821C19.0196 21.2696 18.7652 21.375 18.5 21.375C18.2348 21.375 17.9804 21.2696 17.7929 21.0821C17.6054 20.8946 17.5 20.6402 17.5 20.375V6.875C17.5 6.21196 17.2366 5.57607 16.7678 5.10723C16.2989 4.63839 15.663 4.375 15 4.375H14.752C14.6857 4.375 14.6221 4.34866 14.5752 4.30178C14.5283 4.25489 14.502 4.1913 14.502 4.125V2.375C14.5015 1.91103 14.3169 1.46622 13.9889 1.13815C13.6608 0.810074 13.216 0.625529 12.752 0.625H1.752C1.28777 0.625264 0.842596 0.80966 0.514147 1.13773C0.185698 1.46581 0.000794389 1.91077 0 2.375L0 21.375C0.000793194 21.8389 0.185422 22.2835 0.513439 22.6116C0.841456 22.9396 1.28611 23.1242 1.75 23.125H12.75C13.214 23.1245 13.6588 22.9399 13.9869 22.6119C14.3149 22.2838 14.4995 21.839 14.5 21.375V6.625C14.5 6.5587 14.5263 6.49511 14.5732 6.44822C14.6201 6.40134 14.6837 6.375 14.75 6.375H15C15.1326 6.375 15.2598 6.42768 15.3536 6.52145C15.4473 6.61521 15.5 6.74239 15.5 6.875V20.375C15.5 21.1706 15.8161 21.9337 16.3787 22.4963C16.9413 23.0589 17.7044 23.375 18.5 23.375C19.2956 23.375 20.0587 23.0589 20.6213 22.4963C21.1839 21.9337 21.5 21.1706 21.5 20.375V18.148C21.4998 18.1015 21.5126 18.0559 21.537 18.0163C21.5614 17.9767 21.5964 17.9447 21.638 17.924L22.671 17.407C22.9205 17.2831 23.1304 17.0918 23.2769 16.8548C23.4234 16.6179 23.5007 16.3446 23.5 16.066V14.875C23.5 14.4772 23.342 14.0956 23.0607 13.8143C22.7794 13.533 22.3978 13.375 22 13.375H21.74C21.674 13.375 21.6108 13.3489 21.5639 13.3025C21.5171 13.256 21.4905 13.193 21.49 13.127V12.971C22.1045 11.9051 22.8577 10.9256 23.73 10.058C23.9109 9.86422 24.0075 9.60653 23.9985 9.34156C23.9895 9.0766 23.8757 8.82605 23.682 8.645ZM10.749 15.625C10.749 15.7576 10.6963 15.8848 10.6026 15.9786C10.5088 16.0723 10.3816 16.125 10.249 16.125H9.249C9.11639 16.125 8.98921 16.0723 8.89545 15.9786C8.80168 15.8848 8.749 15.7576 8.749 15.625V12.625C8.749 12.4924 8.80168 12.3652 8.89545 12.2714C8.98921 12.1777 9.11639 12.125 9.249 12.125H10.249C10.3816 12.125 10.5088 12.1777 10.6026 12.2714C10.6963 12.3652 10.749 12.4924 10.749 12.625V15.625ZM11.749 6.875C11.749 7.00761 11.6963 7.13479 11.6026 7.22855C11.5088 7.32232 11.3816 7.375 11.249 7.375H3.249C3.11639 7.375 2.98921 7.32232 2.89545 7.22855C2.80168 7.13479 2.749 7.00761 2.749 6.875V3.875C2.749 3.74239 2.80168 3.61521 2.89545 3.52145C2.98921 3.42768 3.11639 3.375 3.249 3.375H11.249C11.3816 3.375 11.5088 3.42768 11.6026 3.52145C11.6963 3.61521 11.749 3.74239 11.749 3.875V6.875Z" fill="white"/>
</svg>
