<svg width="12" height="68" viewBox="0 0 12 68" fill="none" xmlns="http://www.w3.org/2000/svg">
<path fill-rule="evenodd" clip-rule="evenodd" d="M8.72949 57.3262C7.88036 56.477 6.72869 56 5.52783 56C4.32697 56 3.1753 56.477 2.32617 57.3262C1.47704 58.1753 1 59.327 1 60.5278C1 62.4607 3.70462 66.1393 4.93318 67.71C5.00376 67.8003 5.09399 67.8734 5.19703 67.9236C5.30006 67.9739 5.41319 68 5.52783 68C5.64247 68 5.7556 67.9739 5.85863 67.9236C5.96167 67.8734 6.0519 67.8003 6.12248 67.71C7.35104 66.1383 10.0557 62.4607 10.0557 60.5278C10.0557 59.327 9.57862 58.1753 8.72949 57.3262ZM5.52783 62.0371C6.36138 62.0371 7.03711 61.3614 7.03711 60.5278C7.03711 59.6943 6.36138 59.0186 5.52783 59.0186C4.69428 59.0186 4.01855 59.6943 4.01855 60.5278C4.01855 61.3614 4.69428 62.0371 5.52783 62.0371Z" fill="#0063F5"/>
<path fill-rule="evenodd" clip-rule="evenodd" d="M6 8C7.10457 8 8 7.10457 8 6C8 4.89543 7.10457 4 6 4C4.89543 4 4 4.89543 4 6C4 7.10457 4.89543 8 6 8ZM6 10C8.20914 10 10 8.20914 10 6C10 3.79086 8.20914 2 6 2C3.79086 2 2 3.79086 2 6C2 8.20914 3.79086 10 6 10Z" fill="#0063F5"/>
<circle opacity="0.5" cx="6" cy="22" r="2" fill="#0063F5"/>
<circle opacity="0.5" cx="6" cy="34" r="2" fill="#0063F5"/>
<circle opacity="0.5" cx="6" cy="46" r="2" fill="#0063F5"/>
</svg>
