<svg width="16" height="16" viewBox="0 0 16 16" fill="none" xmlns="http://www.w3.org/2000/svg">
<path d="M14.3782 8.18029H10.9547C10.89 8.18046 10.8267 8.19946 10.7726 8.23497C10.7185 8.27049 10.6759 8.32099 10.65 8.3803L9.87731 10.1177C9.79936 10.2932 9.67253 10.4426 9.51198 10.5479C9.35143 10.6532 9.16394 10.7101 8.97193 10.7118H8.96193C8.7717 10.7113 8.58555 10.6567 8.4253 10.5542C8.26505 10.4517 8.13736 10.3056 8.05721 10.1331L6.65714 7.14024C6.64451 7.11353 6.62503 7.09065 6.60068 7.07391C6.57633 7.05717 6.54799 7.04717 6.51853 7.04494C6.48907 7.0427 6.45954 7.04831 6.43295 7.06118C6.40636 7.07406 6.38365 7.09374 6.36713 7.11824L5.95511 7.7376C5.86373 7.87468 5.7399 7.98707 5.59463 8.06476C5.44936 8.14246 5.28714 8.18306 5.1224 8.18296H1.62288C1.59016 8.18303 1.55819 8.19272 1.53095 8.21083C1.5037 8.22894 1.48239 8.25467 1.46967 8.28481C1.45694 8.31495 1.45337 8.34817 1.45939 8.38032C1.46542 8.41248 1.48077 8.44215 1.50354 8.46564L7.50385 14.6413C7.56884 14.7082 7.64658 14.7613 7.73247 14.7976C7.81835 14.8339 7.91064 14.8526 8.00388 14.8526C8.09712 14.8526 8.18941 14.8339 8.27529 14.7976C8.36118 14.7613 8.43891 14.7082 8.5039 14.6413L14.5042 8.46564C14.527 8.44215 14.5423 8.41248 14.5484 8.38032C14.5544 8.34817 14.5508 8.31495 14.5381 8.28481C14.5254 8.25467 14.5041 8.22894 14.4768 8.21083C14.4496 8.19272 14.4176 8.18303 14.3849 8.18296L14.3782 8.18029Z" fill="#0063F5"/>
<path d="M15.5749 3.53535C15.2833 2.9692 14.8626 2.47955 14.3469 2.10592C13.8312 1.73229 13.2349 1.48515 12.606 1.38445C11.9772 1.28374 11.3335 1.33229 10.7269 1.52618C10.1203 1.72007 9.56777 2.05387 9.11392 2.50063L8.22521 3.31067C8.1638 3.3667 8.08366 3.39776 8.00053 3.39776C7.9174 3.39776 7.83727 3.3667 7.77585 3.31067L6.88714 2.50063C6.4333 2.05387 5.88077 1.72007 5.27416 1.52618C4.66756 1.33229 4.02386 1.28374 3.39503 1.38445C2.7662 1.48515 2.16986 1.73229 1.65414 2.10592C1.13841 2.47955 0.717763 2.9692 0.426136 3.53535C0.185223 4.00987 0.0431049 4.52834 0.00838207 5.05939C-0.0263407 5.59043 0.0470545 6.12299 0.224125 6.62484C0.246903 6.69 0.289345 6.74648 0.345592 6.78649C0.401839 6.82649 0.469118 6.84805 0.538142 6.84819H4.76903C4.82393 6.84816 4.87797 6.83457 4.92635 6.80864C4.97474 6.7827 5.01596 6.74522 5.04638 6.69951L5.75441 5.63679C5.85194 5.48813 5.98777 5.36854 6.14758 5.29062C6.3074 5.21271 6.48528 5.17937 6.66246 5.1941C6.8394 5.20748 7.0096 5.2677 7.15559 5.36858C7.30157 5.46945 7.41808 5.60736 7.49317 5.76813L8.80057 8.57295C8.81383 8.60205 8.83518 8.62672 8.86207 8.64402C8.88897 8.66132 8.92027 8.67052 8.95225 8.67052C8.98423 8.67052 9.01553 8.66132 9.04242 8.64402C9.06932 8.62672 9.09066 8.60205 9.10392 8.57295L9.60662 7.43955C9.68523 7.26295 9.81334 7.11292 9.97544 7.00761C10.1375 6.90231 10.3267 6.84624 10.52 6.84619H15.4609C15.53 6.84624 15.5973 6.82484 15.6537 6.78495C15.7101 6.74506 15.7527 6.68865 15.7756 6.62351C15.9527 6.12194 16.0262 5.58966 15.9917 5.05887C15.9572 4.52807 15.8154 4.00978 15.5749 3.53535Z" fill="#0063F5"/>
</svg>
