<svg width="32" height="32" viewBox="0 0 32 32" fill="none" xmlns="http://www.w3.org/2000/svg">
<path d="M31 12.0003V6.20033C31.0001 5.80054 30.8803 5.4099 30.6562 5.07883C30.4321 4.74776 30.1139 4.49146 29.7427 4.343L21.7427 1.143C21.2659 0.952333 20.7341 0.952333 20.2573 1.143L11.7427 4.54967C11.2659 4.74034 10.7341 4.74034 10.2573 4.54967L2.37201 1.395C2.21987 1.33402 2.05507 1.31138 1.89212 1.32906C1.72917 1.34675 1.57306 1.40421 1.43754 1.49641C1.30201 1.5886 1.19123 1.71269 1.11494 1.85776C1.03864 2.00283 0.999176 2.16443 1.00001 2.32833V21.4923C0.999946 21.8921 1.1197 22.2828 1.34382 22.6138C1.56794 22.9449 1.88614 23.2012 2.25735 23.3497L10.2573 26.5497C10.7341 26.7403 11.2659 26.7403 11.7427 26.5497L15.584 25.0123" stroke="white" stroke-width="2" stroke-linecap="round" stroke-linejoin="round"/>
<path d="M11 4.69235V26.6924" stroke="white" stroke-width="2" stroke-linecap="round" stroke-linejoin="round"/>
<path d="M21 1.00034V11.0003" stroke="white" stroke-width="2" stroke-linecap="round" stroke-linejoin="round"/>
<path d="M25 20.599C25.1326 20.599 25.2598 20.6517 25.3536 20.7455C25.4473 20.8392 25.5 20.9664 25.5 21.099" stroke="white" stroke-width="2" stroke-linecap="round" stroke-linejoin="round"/>
<path d="M24.5 21.099C24.5 20.9664 24.5527 20.8392 24.6464 20.7455C24.7402 20.6517 24.8674 20.599 25 20.599" stroke="white" stroke-width="2" stroke-linecap="round" stroke-linejoin="round"/>
<path d="M25 21.6003C24.8674 21.6003 24.7402 21.5476 24.6464 21.4539C24.5527 21.3601 24.5 21.2329 24.5 21.1003" stroke="white" stroke-width="2" stroke-linecap="round" stroke-linejoin="round"/>
<path d="M25.5 21.099C25.5 21.2316 25.4473 21.3588 25.3536 21.4526C25.2598 21.5464 25.1326 21.599 25 21.599" stroke="white" stroke-width="2" stroke-linecap="round" stroke-linejoin="round"/>
<path d="M25 15.099C26.5913 15.099 28.1174 15.7312 29.2426 16.8564C30.3679 17.9816 31 19.5077 31 21.099C31 23.6604 27.416 28.5337 25.788 30.6164C25.6945 30.7361 25.5749 30.8329 25.4384 30.8995C25.3018 30.9661 25.1519 31.0007 25 31.0007C24.8481 31.0007 24.6982 30.9661 24.5616 30.8995C24.4251 30.8329 24.3055 30.7361 24.212 30.6164C22.584 28.535 19 23.6604 19 21.099C19 19.5077 19.6321 17.9816 20.7574 16.8564C21.8826 15.7312 23.4087 15.099 25 15.099Z" stroke="white" stroke-width="2" stroke-linecap="round" stroke-linejoin="round"/>
</svg>
