<svg width="24" height="24" viewBox="0 0 24 24" fill="none" xmlns="http://www.w3.org/2000/svg">
<g clip-path="url(#clip0)">
<path fill-rule="evenodd" clip-rule="evenodd" d="M6.39982 15.9914C6.72602 15.6787 7.24395 15.6896 7.55665 16.0158L12 20.651L16.4424 16.0168C16.7551 15.6906 17.273 15.6797 17.5992 15.9924C17.9254 16.3051 17.9363 16.823 17.6237 17.1492L13.132 21.8348C13.1319 21.8349 13.1318 21.835 13.1317 21.8351C13.1317 21.8352 13.1317 21.8352 13.1316 21.8352C12.9854 21.9878 12.8098 22.1093 12.6154 22.1923C12.4209 22.2754 12.2115 22.3182 12 22.3182C11.7885 22.3182 11.5791 22.2754 11.3846 22.1923C11.1902 22.1093 11.0146 21.9878 10.8684 21.8352C10.8683 21.8351 10.8683 21.8351 10.8682 21.835C10.8681 21.8349 10.8681 21.8349 10.868 21.8348L6.37537 17.1482C6.06268 16.822 6.07362 16.3041 6.39982 15.9914Z" fill="#0063F5"/>
<path fill-rule="evenodd" clip-rule="evenodd" d="M18.3547 3.02747C17.5955 2.90429 16.8178 2.96327 16.0858 3.19957C15.3538 3.43586 14.6885 3.84269 14.1446 4.38654C14.1445 4.38655 14.1446 4.38653 14.1446 4.38654L12.5786 5.95254C12.2594 6.2717 11.7421 6.27212 11.4224 5.95347L9.8555 4.39157C9.31158 3.8477 8.64621 3.44086 7.91421 3.20457C7.18222 2.96827 6.40456 2.90929 5.6453 3.03247C4.88604 3.15566 4.16692 3.45749 3.54719 3.9131C2.92752 4.36865 2.42496 4.96491 2.08089 5.65275C1.72788 6.36011 1.55287 7.14295 1.57106 7.93329C1.58926 8.72377 1.80017 9.49785 2.18547 10.1883C2.40567 10.5829 2.26431 11.0813 1.86972 11.3015C1.47513 11.5217 0.976752 11.3803 0.756553 10.9857C0.241428 10.0626 -0.0405431 9.02775 -0.0648695 7.97095C-0.0891958 6.91415 0.144858 5.86739 0.616963 4.92159C1.07701 4.00177 1.74931 3.20385 2.57793 2.59468C3.40655 1.9855 4.36806 1.58194 5.38324 1.41723C6.39841 1.25252 7.43819 1.33139 8.41691 1.64733C9.39546 1.96322 10.285 2.50706 11.0122 3.23406C11.0123 3.23418 11.012 3.23394 11.0122 3.23406L11.9991 4.21784L12.9875 3.22946C13.7147 2.50227 14.6044 1.95827 15.5831 1.64233C16.5618 1.32639 17.6016 1.24752 18.6168 1.41223C19.632 1.57694 20.5935 1.9805 21.4221 2.58968C22.2507 3.19885 22.9227 3.9962 23.3828 4.91601C23.8549 5.86157 24.0895 6.90851 24.0657 7.9651C24.042 9.02169 23.7609 10.0566 23.2469 10.98C23.0271 11.3748 22.5289 11.5167 22.134 11.2969C21.7392 11.0771 21.5973 10.5788 21.8171 10.184C22.2017 9.49315 22.412 8.71889 22.4298 7.92837C22.4475 7.13785 22.2722 6.35493 21.919 5.64748C21.5749 4.95975 21.0724 4.36359 20.4528 3.9081C19.8331 3.45249 19.114 3.15066 18.3547 3.02747Z" fill="#0063F5"/>
<path fill-rule="evenodd" clip-rule="evenodd" d="M9.56258 11.2876L8.33585 13.7418L8.33489 13.7437C8.2354 13.9415 8.08294 14.1076 7.8945 14.2237C7.70614 14.3398 7.48924 14.4012 7.26801 14.4012C7.26792 14.4012 7.26783 14.4012 7.26774 14.4012H0.750006C0.298136 14.4012 -0.0681763 14.0349 -0.0681763 13.583C-0.0681763 13.1311 0.298136 12.7648 0.750006 12.7648H6.99481L8.59341 9.56669C8.69886 9.35171 8.86652 9.17334 9.07469 9.05482C9.28491 8.93513 9.52652 8.8821 9.76754 8.90276C10.0086 8.92342 10.2376 9.01679 10.4244 9.17051C10.6095 9.32285 10.7444 9.52735 10.8117 9.75734L12.1391 14.1793L13.226 11.6428L13.2269 11.6406C13.3119 11.4438 13.4483 11.2735 13.6217 11.1476C13.7952 11.0217 13.9994 10.9448 14.2128 10.925C14.4262 10.9052 14.641 10.9432 14.8347 11.035C15.0284 11.1268 15.1938 11.2691 15.3135 11.4468L15.3158 11.4501L15.3158 11.4502L16.1889 12.7598H23.251C23.7029 12.7598 24.0692 13.1261 24.0692 13.578C24.0692 14.0299 23.7029 14.3962 23.251 14.3962H15.751C15.4774 14.3962 15.222 14.2595 15.0702 14.0318L14.4081 13.0386L13.1601 15.9512L13.1527 15.9678C13.053 16.187 12.8893 16.371 12.6832 16.4955C12.477 16.62 12.2381 16.6793 11.9976 16.6655C11.7572 16.6518 11.5265 16.5657 11.3359 16.4185C11.1453 16.2713 11.0036 16.0699 10.9295 15.8408L10.9244 15.8242L9.56258 11.2876Z" fill="#0063F5"/>
</g>
<defs>
<clipPath id="clip0">
<rect width="24" height="24" fill="white"/>
</clipPath>
</defs>
</svg>
