<svg width="24" height="24" viewBox="0 0 24 24" fill="none" xmlns="http://www.w3.org/2000/svg">
<path fill-rule="evenodd" clip-rule="evenodd" d="M9.95545 19.2804C10.3529 19.1637 10.7697 19.3913 10.8863 19.7888C10.9571 20.0299 11.1041 20.2416 11.3053 20.3922C11.5065 20.5428 11.751 20.6242 12.0023 20.6242C12.2536 20.6242 12.4982 20.5428 12.6994 20.3922C12.9005 20.2416 13.0475 20.0299 13.1183 19.7888C13.235 19.3913 13.6518 19.1637 14.0492 19.2804C14.4466 19.3971 14.6743 19.8138 14.5576 20.2113C14.3955 20.7634 14.059 21.2482 13.5983 21.593C13.1377 21.9379 12.5777 22.1242 12.0023 22.1242C11.4269 22.1242 10.867 21.9379 10.4063 21.593C9.94569 21.2482 9.60914 20.7634 9.44707 20.2113C9.33039 19.8138 9.558 19.3971 9.95545 19.2804Z" fill="#0063F5"/>
<path fill-rule="evenodd" clip-rule="evenodd" d="M12 0C12.4142 0 12.75 0.335786 12.75 0.75V2.8125C12.75 3.22671 12.4142 3.5625 12 3.5625C11.5858 3.5625 11.25 3.22671 11.25 2.8125V0.75C11.25 0.335786 11.5858 0 12 0Z" fill="#0063F5"/>
<path fill-rule="evenodd" clip-rule="evenodd" d="M12 3.5625C10.3756 3.5625 8.81764 4.20781 7.66898 5.35647C6.52032 6.50513 5.87501 8.06305 5.87501 9.6875C5.87501 12.6489 5.52444 14.6127 5.15684 15.8583C5.08605 16.0982 5.01464 16.3114 4.94498 16.5H18.9796C18.9354 16.3824 18.8913 16.2552 18.8476 16.1177C18.4731 14.9373 18.125 12.9643 18.125 9.6875C18.125 8.06305 17.4797 6.50513 16.331 5.35647C15.1824 4.20781 13.6245 3.5625 12 3.5625ZM12 2.0625C9.97773 2.0625 8.03828 2.86585 6.60832 4.29581C5.17835 5.72578 4.37501 7.66522 4.37501 9.6875C4.37501 12.5323 4.03808 14.3497 3.71817 15.4338C3.5583 15.9755 3.40267 16.3342 3.29531 16.5469C3.24161 16.6533 3.19985 16.7234 3.17547 16.7619C3.16328 16.7812 3.1554 16.7925 3.15252 16.7966C3.15239 16.7968 3.15227 16.797 3.15216 16.7971C2.98174 17.0221 2.95186 17.3241 3.07575 17.5784C3.20138 17.8364 3.46313 18 3.75001 18H20.25C20.5683 18 20.8519 17.7991 20.9575 17.4988C21.0581 17.213 20.9764 16.8964 20.7542 16.6947C20.7542 16.6948 20.7543 16.6949 20.7544 16.6949C20.7563 16.6972 20.7575 16.6985 20.7579 16.6989C20.7585 16.6995 20.7572 16.6981 20.7537 16.6948C20.7521 16.6932 20.7499 16.6912 20.7473 16.6887C20.7454 16.6871 20.7434 16.6852 20.741 16.6832L20.7314 16.6749L20.7257 16.6702L20.7227 16.6677L20.7211 16.6664C20.7324 16.6756 20.7435 16.685 20.7542 16.6947C20.744 16.6831 20.7139 16.6468 20.6695 16.5765C20.5801 16.4347 20.4332 16.155 20.2774 15.664C19.9644 14.6778 19.625 12.8695 19.625 9.6875C19.625 7.66522 18.8217 5.72578 17.3917 4.29581C15.9617 2.86585 14.0223 2.0625 12 2.0625ZM20.25 17.25L20.7195 16.6651C20.72 16.6655 20.7206 16.666 20.7211 16.6664C20.7203 16.6658 20.7195 16.6651 20.25 17.25Z" fill="#0063F5"/>
</svg>
