<svg width="24" height="24" viewBox="0 0 24 24" fill="none" xmlns="http://www.w3.org/2000/svg">
<path d="M23.846 19.1372C23.8004 19.1179 23.7502 19.1128 23.7017 19.1224C23.6532 19.132 23.6087 19.156 23.574 19.1912L19.294 23.4702C19.2644 23.4999 19.2428 23.5366 19.2311 23.5768C19.2194 23.6171 19.218 23.6596 19.2271 23.7005C19.2362 23.7415 19.2554 23.7795 19.283 23.811C19.3105 23.8426 19.3456 23.8667 19.385 23.8812C19.5029 23.9255 19.6279 23.9482 19.754 23.9482H22.754C23.0845 23.9474 23.4013 23.8156 23.6349 23.5816C23.8684 23.3477 23.9997 23.0307 24 22.7002V19.3672C24.0001 19.3179 23.9855 19.2696 23.9581 19.2287C23.9306 19.1877 23.8916 19.1558 23.846 19.1372Z" fill="white"/>
<path d="M23.846 14.1462C23.8004 14.1273 23.7502 14.1224 23.7018 14.132C23.6534 14.1416 23.6089 14.1653 23.574 14.2002L18.574 19.1902C18.5507 19.2134 18.5323 19.241 18.5198 19.2714C18.5073 19.3017 18.5009 19.3343 18.501 19.3672V21.5362C18.5011 21.5855 18.5158 21.6336 18.5432 21.6746C18.5706 21.7156 18.6095 21.7476 18.6551 21.7665C18.7006 21.7854 18.7507 21.7904 18.7991 21.781C18.8475 21.7715 18.892 21.7479 18.927 21.7132L23.927 16.7192C23.9737 16.6721 24 16.6085 24 16.5422V14.3772C23.9999 14.3278 23.9852 14.2795 23.9578 14.2384C23.9304 14.1973 23.8915 14.1652 23.846 14.1462Z" fill="white"/>
<path d="M18.5061 16.5421C18.5064 16.5914 18.5212 16.6394 18.5487 16.6802C18.5762 16.7211 18.6151 16.7529 18.6606 16.7717C18.7061 16.7905 18.7561 16.7954 18.8044 16.7859C18.8527 16.7764 18.8971 16.7528 18.9321 16.7181L23.5381 12.1181C23.5626 12.0936 23.5818 12.0642 23.5944 12.0318C23.6069 11.9995 23.6126 11.9648 23.6111 11.9301C23.6097 11.8956 23.601 11.8617 23.5857 11.8307C23.5704 11.7997 23.5487 11.7722 23.5221 11.7501C23.3075 11.5656 23.0341 11.4638 22.7511 11.4631H20.0091C19.9494 11.4629 19.8917 11.4417 19.8461 11.4031L8.54206 1.71114C8.33921 1.55311 8.08329 1.47929 7.82744 1.50502C7.57159 1.53075 7.33549 1.65404 7.16816 1.84929C7.00084 2.04455 6.91516 2.29675 6.92892 2.55352C6.94268 2.81029 7.05483 3.05189 7.24206 3.22814L18.4191 12.8111C18.4463 12.8345 18.4682 12.8635 18.4833 12.8961C18.4983 12.9287 18.5061 12.9642 18.5061 13.0001V16.5421Z" fill="white"/>
<path d="M5.24403 21.9512H1.24902C1.18272 21.9512 1.11913 21.9775 1.07225 22.0244C1.02536 22.0713 0.999023 22.1349 0.999023 22.2012V22.7012C0.999288 23.0323 1.13096 23.3499 1.36514 23.5841C1.59932 23.8182 1.91685 23.9499 2.24802 23.9502H4.24803C4.57903 23.9496 4.8963 23.8178 5.13026 23.5837C5.36422 23.3496 5.49576 23.0322 5.49603 22.7012V22.2012C5.49603 22.1682 5.4895 22.1355 5.47681 22.105C5.46412 22.0746 5.44553 22.0469 5.4221 22.0237C5.39867 22.0004 5.37087 21.9821 5.34031 21.9696C5.30975 21.9572 5.27703 21.9509 5.24403 21.9512Z" fill="white"/>
<path d="M15.247 21.9512H11.252C11.1856 21.9512 11.1221 21.9775 11.0752 22.0244C11.0283 22.0713 11.002 22.1349 11.002 22.2012V22.7012C11.0022 23.0322 11.1338 23.3496 11.3677 23.5837C11.6017 23.8179 11.919 23.9496 12.25 23.9502H14.25C14.5815 23.9502 14.8994 23.8185 15.1338 23.5841C15.3683 23.3496 15.5 23.0317 15.5 22.7002V22.2002C15.4998 22.1672 15.4932 22.1345 15.4804 22.1041C15.4675 22.0737 15.4488 22.0461 15.4253 22.023C15.4018 21.9998 15.3739 21.9816 15.3433 21.9692C15.3127 21.9569 15.28 21.9508 15.247 21.9512Z" fill="white"/>
<path d="M15.046 15.4462C14.9985 15.3985 14.9611 15.3417 14.936 15.2792L12.887 10.1582C12.778 9.87909 12.5872 9.63941 12.3398 9.47046C12.0923 9.3015 11.7997 9.21114 11.5 9.21117H5.16602C4.86624 9.21028 4.57314 9.29967 4.32487 9.46768C4.0766 9.63569 3.88465 9.87455 3.77402 10.1532L1.83602 15.0032C1.81079 15.0661 1.77303 15.1233 1.72502 15.1712L0.219015 16.6772C0.149009 16.7473 0.0936056 16.8306 0.0560137 16.9222C0.0184218 17.0139 -0.00061188 17.1121 1.49954e-05 17.2112V19.7112C0.000544492 20.0422 0.132337 20.3595 0.366484 20.5934C0.600631 20.8274 0.918015 20.9589 1.24902 20.9592H15.249C15.4137 20.9593 15.5767 20.9269 15.7288 20.8638C15.8809 20.8008 16.0191 20.7083 16.1353 20.5916C16.2516 20.475 16.3436 20.3366 16.4062 20.1843C16.4688 20.032 16.5007 19.8688 16.5 19.7042V17.4112C16.4994 17.0801 16.3678 16.7626 16.134 16.5282L15.046 15.4462ZM12.194 14.1002C12.1711 14.1337 12.1404 14.1612 12.1045 14.1801C12.0686 14.1991 12.0286 14.2091 11.988 14.2092H4.67402C4.63319 14.2094 4.59293 14.1996 4.55682 14.1805C4.5207 14.1615 4.48985 14.1338 4.467 14.1C4.44415 14.0662 4.43 14.0272 4.42582 13.9866C4.42163 13.946 4.42754 13.905 4.44302 13.8672L5.44302 11.3672C5.46159 11.3208 5.49362 11.2811 5.53496 11.2531C5.57631 11.2251 5.62509 11.2102 5.67502 11.2102H10.99C11.04 11.21 11.0888 11.2249 11.1302 11.2529C11.1716 11.2809 11.2036 11.3207 11.222 11.3672L12.222 13.8672C12.237 13.9053 12.2422 13.9465 12.2373 13.9872C12.2324 14.0278 12.2176 14.0667 12.194 14.1002Z" fill="white"/>
</svg>
