<svg width="24" height="24" viewBox="0 0 24 24" fill="none" xmlns="http://www.w3.org/2000/svg">
<path fill-rule="evenodd" clip-rule="evenodd" d="M7.52337 19.5064V22.4681H17.9744V19.5064H7.52337ZM5.99146 19.4894C5.99146 18.6527 6.6697 17.9745 7.50635 17.9745H17.9915C18.8281 17.9745 19.5063 18.6527 19.5063 19.4894V22.4851C19.5063 23.3218 18.8281 24 17.9915 24H7.50635C6.6697 24 5.99146 23.3218 5.99146 22.4851V19.4894Z" fill="#0063F5"/>
<path fill-rule="evenodd" clip-rule="evenodd" d="M9.02123 15.0128V17.9745H19.4723V15.0128H9.02123ZM7.48932 14.9957C7.48932 14.1591 8.16756 13.4809 9.00421 13.4809H19.4893C20.326 13.4809 21.0042 14.1591 21.0042 14.9957V17.9915C21.0042 18.8281 20.326 19.5064 19.4893 19.5064H9.00421C8.16756 19.5064 7.48932 18.8281 7.48932 17.9915V14.9957Z" fill="#0063F5"/>
<path fill-rule="evenodd" clip-rule="evenodd" d="M4.5277 10.5191V13.4808H14.9788V10.5191H4.5277ZM2.99579 10.5021C2.99579 9.66547 3.67403 8.98723 4.51068 8.98723H14.9958C15.8324 8.98723 16.5107 9.66547 16.5107 10.5021V13.4979C16.5107 14.3345 15.8324 15.0128 14.9958 15.0128H4.51068C3.67403 15.0128 2.99579 14.3345 2.99579 13.4979V10.5021Z" fill="#0063F5"/>
<path fill-rule="evenodd" clip-rule="evenodd" d="M6.02557 6.02553V8.98723H16.4766V6.02553H6.02557ZM4.49365 6.00851C4.49365 5.17186 5.17189 4.49362 6.00855 4.49362H16.4937C17.3303 4.49362 18.0085 5.17186 18.0085 6.00851V9.00425C18.0085 9.84091 17.3303 10.5191 16.4937 10.5191H6.00855C5.17189 10.5191 4.49365 9.84091 4.49365 9.00425V6.00851Z" fill="#0063F5"/>
<path fill-rule="evenodd" clip-rule="evenodd" d="M21.7362 6.74043C22.1592 6.74043 22.5021 7.08336 22.5021 7.50638V10.5021C22.5021 10.9252 22.1592 11.2681 21.7362 11.2681C21.3131 11.2681 20.9702 10.9252 20.9702 10.5021V7.50638C20.9702 7.08336 21.3131 6.74043 21.7362 6.74043Z" fill="#0063F5"/>
<path fill-rule="evenodd" clip-rule="evenodd" d="M19.4724 9.00425C19.4724 8.58123 19.8153 8.2383 20.2383 8.2383H23.2341C23.6571 8.2383 24 8.58123 24 9.00425C24 9.42728 23.6571 9.77021 23.2341 9.77021H20.2383C19.8153 9.77021 19.4724 9.42728 19.4724 9.00425Z" fill="#0063F5"/>
<path fill-rule="evenodd" clip-rule="evenodd" d="M2.26382 0C2.68685 0 3.02978 0.342931 3.02978 0.765957V3.7617C3.02978 4.18473 2.68685 4.52766 2.26382 4.52766C1.84079 4.52766 1.49786 4.18473 1.49786 3.7617V0.765957C1.49786 0.342931 1.84079 0 2.26382 0Z" fill="#0063F5"/>
<path fill-rule="evenodd" clip-rule="evenodd" d="M0 2.26383C0 1.8408 0.342931 1.49787 0.765957 1.49787H3.7617C4.18473 1.49787 4.52766 1.8408 4.52766 2.26383C4.52766 2.68686 4.18473 3.02979 3.7617 3.02979H0.765957C0.342931 3.02979 0 2.68686 0 2.26383Z" fill="#0063F5"/>
</svg>
