<svg width="24" height="24" viewBox="0 0 24 24" fill="none" xmlns="http://www.w3.org/2000/svg">
<g clip-path="url(#clip0)">
<path fill-rule="evenodd" clip-rule="evenodd" d="M18 19.5682C17.2092 19.5682 16.5682 20.2092 16.5682 21C16.5682 21.7908 17.2092 22.4318 18 22.4318C18.7908 22.4318 19.4318 21.7908 19.4318 21C19.4318 20.2092 18.7908 19.5682 18 19.5682ZM14.9318 21C14.9318 19.3055 16.3055 17.9318 18 17.9318C19.6945 17.9318 21.0682 19.3055 21.0682 21C21.0682 22.6945 19.6945 24.0682 18 24.0682C16.3055 24.0682 14.9318 22.6945 14.9318 21Z" fill="#0063F5"/>
<path fill-rule="evenodd" clip-rule="evenodd" d="M12.7709 8.1438C13.0102 7.76046 13.5149 7.64364 13.8982 7.88288L16.0799 9.24446C16.7018 9.59086 17.2166 10.1019 17.5674 10.7217C17.9195 11.3437 18.0927 12.0508 18.0682 12.7649V13.63L22.7204 14.9375C23.1036 15.0361 23.4436 15.2586 23.6874 15.5705C23.9341 15.8862 24.0682 16.2753 24.0682 16.6759V21.293C24.0682 21.7449 23.7019 22.1112 23.25 22.1112C22.7982 22.1112 22.4318 21.7449 22.4318 21.293V16.676C22.4318 16.676 22.4318 16.6761 22.4318 16.676C22.4318 16.6406 22.42 16.6062 22.3981 16.5782C22.3763 16.5503 22.3458 16.5305 22.3114 16.5219C22.3034 16.52 22.2955 16.5179 22.2877 16.5156L17.0287 15.0376C16.6757 14.9385 16.4318 14.6166 16.4318 14.25V12.75C16.4318 12.7394 16.432 12.7289 16.4325 12.7183C16.4485 12.3024 16.3484 11.8901 16.1434 11.5278C15.9383 11.1655 15.6363 10.8675 15.2714 10.6673C15.258 10.6599 15.2448 10.6522 15.2318 10.6441L13.0318 9.27108C12.6485 9.03184 12.5317 8.52714 12.7709 8.1438Z" fill="#0063F5"/>
<path fill-rule="evenodd" clip-rule="evenodd" d="M12.6489 14.25C12.6489 13.7981 13.0152 13.4318 13.467 13.4318H17.25C17.7019 13.4318 18.0682 13.7981 18.0682 14.25C18.0682 14.7019 17.7019 15.0682 17.25 15.0682H13.467C13.0152 15.0682 12.6489 14.7019 12.6489 14.25Z" fill="#0063F5"/>
<path fill-rule="evenodd" clip-rule="evenodd" d="M20.9318 18C20.9318 17.5481 21.2981 17.1818 21.75 17.1818H23.25C23.7019 17.1818 24.0682 17.5481 24.0682 18C24.0682 18.4519 23.7019 18.8182 23.25 18.8182H21.75C21.2981 18.8182 20.9318 18.4519 20.9318 18Z" fill="#0063F5"/>
<path fill-rule="evenodd" clip-rule="evenodd" d="M-0.0681763 5.25C-0.0681763 4.79813 0.298136 4.43182 0.750005 4.43182H3.00001C3.45187 4.43182 3.81819 4.79813 3.81819 5.25C3.81819 5.70187 3.45187 6.06818 3.00001 6.06818H0.750005C0.298136 6.06818 -0.0681763 5.70187 -0.0681763 5.25Z" fill="#0063F5"/>
<path fill-rule="evenodd" clip-rule="evenodd" d="M2.18182 5.25C2.18182 4.79813 2.54814 4.43182 3.00001 4.43182H7.50001C7.95188 4.43182 8.31819 4.79813 8.31819 5.25V19.5C8.31819 19.9519 7.95188 20.3182 7.50001 20.3182H3.00001C2.54814 20.3182 2.18182 19.9519 2.18182 19.5V5.25ZM3.81819 6.06818V18.6818H6.68182V6.06818H3.81819Z" fill="#0063F5"/>
<path fill-rule="evenodd" clip-rule="evenodd" d="M3.72379 0.491267C3.86668 0.0625859 4.33003 -0.16909 4.75872 -0.0261968L5.98253 0.381741C5.98259 0.381762 5.98247 0.38172 5.98253 0.381741C6.44412 0.535525 6.84581 0.830707 7.13036 1.22536C7.41495 1.62007 7.56812 2.09432 7.56817 2.58092V5.25C7.56817 5.70187 7.20185 6.06818 6.74998 6.06818C6.29811 6.06818 5.9318 5.70187 5.9318 5.25V2.58107C5.9318 2.58105 5.9318 2.5811 5.9318 2.58107C5.93177 2.43798 5.88672 2.29845 5.80304 2.18238C5.71933 2.06629 5.60122 1.97948 5.46544 1.93426L4.24125 1.52619C3.81257 1.3833 3.58089 0.919948 3.72379 0.491267Z" fill="#0063F5"/>
<path fill-rule="evenodd" clip-rule="evenodd" d="M-0.0681763 19.5C-0.0681763 19.0481 0.298136 18.6818 0.750005 18.6818H3.00001C3.45187 18.6818 3.81819 19.0481 3.81819 19.5C3.81819 19.9519 3.45187 20.3182 3.00001 20.3182H0.750005C0.298136 20.3182 -0.0681763 19.9519 -0.0681763 19.5Z" fill="#0063F5"/>
<path fill-rule="evenodd" clip-rule="evenodd" d="M0.616725 20.9902C1.05456 20.8785 1.50008 21.1428 1.61182 21.5807C1.67389 21.8239 1.8152 22.0395 2.01343 22.1935C2.21166 22.3475 2.45553 22.4311 2.70655 22.4311C2.95757 22.4311 3.20144 22.3475 3.39967 22.1935C3.5979 22.0395 3.73921 21.8239 3.80128 21.5807C3.91302 21.1428 4.35854 20.8785 4.79638 20.9902C5.23421 21.102 5.49856 21.5475 5.38682 21.9853C5.23485 22.5808 4.88889 23.1087 4.40355 23.4858C3.91821 23.8628 3.32113 24.0675 2.70655 24.0675C2.09197 24.0675 1.49489 23.8628 1.00955 23.4858C0.524216 23.1087 0.178256 22.5808 0.0262786 21.9853C-0.0854625 21.5475 0.178889 21.102 0.616725 20.9902Z" fill="#0063F5"/>
<path fill-rule="evenodd" clip-rule="evenodd" d="M6.68182 5.25C6.68182 4.79813 7.04814 4.43182 7.50001 4.43182H9.75994C10.3574 4.43469 10.9484 4.55529 11.4993 4.78669C12.0501 5.0181 12.5499 5.35579 12.9702 5.78046C13.3904 6.20514 13.7229 6.70846 13.9485 7.26168C14.1737 7.81372 14.2881 8.40464 14.2852 9.0008L14.3182 19.4974C14.3189 19.7149 14.233 19.9236 14.0795 20.0776C13.9259 20.2316 13.7174 20.3182 13.5 20.3182H7.50001C7.04814 20.3182 6.68182 19.9519 6.68182 19.5C6.68182 19.0481 7.04814 18.6818 7.50001 18.6818H12.6792L12.6488 8.99538C12.651 8.61293 12.5778 8.2338 12.4333 7.87967C12.2889 7.52553 12.0761 7.20333 11.8071 6.93148C11.538 6.65963 11.2181 6.44347 10.8655 6.29533C10.5134 6.14744 10.1357 6.07026 9.75392 6.06818H7.50001C7.04814 6.06818 6.68182 5.70187 6.68182 5.25Z" fill="#0063F5"/>
<path fill-rule="evenodd" clip-rule="evenodd" d="M13.6984 18.7062C14.1368 18.8158 14.4034 19.2601 14.2938 19.6984L13.8278 21.5624C13.7023 22.0639 13.4129 22.5091 13.0055 22.8272C12.598 23.1453 12.096 23.3181 11.5791 23.3182H7.50001C7.04814 23.3182 6.68182 22.9519 6.68182 22.5C6.68182 22.0481 7.04814 21.6818 7.50001 21.6818H11.5789C11.5789 21.6818 11.5789 21.6818 11.5789 21.6818C11.7309 21.6818 11.8786 21.631 11.9984 21.5374C12.1182 21.4439 12.2033 21.313 12.2403 21.1656C12.2403 21.1655 12.2402 21.1656 12.2403 21.1656L12.7063 19.3016C12.8158 18.8632 13.2601 18.5967 13.6984 18.7062Z" fill="#0063F5"/>
</g>
<defs>
<clipPath id="clip0">
<rect width="24" height="24" fill="white"/>
</clipPath>
</defs>
</svg>
