<svg width="24" height="24" viewBox="0 0 24 24" fill="none" xmlns="http://www.w3.org/2000/svg">
<g clip-path="url(#clip0)">
<path fill-rule="evenodd" clip-rule="evenodd" d="M2.93826 0.530009C3.36485 0.144537 3.91946 -0.0686527 4.4944 -0.0681755C4.49454 -0.0681753 4.49426 -0.0681756 4.4944 -0.0681755H15.729C16.0529 -0.0680716 16.3735 -8.61809e-05 16.6695 0.131396C16.9655 0.262879 17.2307 0.45494 17.448 0.695198C17.6652 0.935455 17.8297 1.21857 17.9308 1.5263C18.0319 1.8339 18.0674 2.15926 18.0351 2.48142L15.9501 23.3314C15.9052 23.781 15.5042 24.1091 15.0546 24.0641C14.605 24.0192 14.2769 23.6182 14.3219 23.1686L16.4069 2.31859C16.4164 2.2238 16.406 2.12766 16.3763 2.03715C16.3465 1.94665 16.2981 1.86337 16.2342 1.79271C16.1703 1.72205 16.0923 1.66556 16.0053 1.62689C15.9183 1.58825 15.8242 1.56826 15.729 1.56819H4.49399C4.32485 1.56802 4.16085 1.63072 4.03535 1.74412C3.9099 1.85749 3.83104 2.01342 3.81409 2.18164L1.70012 23.3314C1.65518 23.781 1.25425 24.1091 0.804618 24.0641C0.354989 24.0192 0.0269252 23.6183 0.0718668 23.1686L2.18587 2.01863C2.24338 1.44642 2.51157 0.915576 2.93826 0.530009Z" fill="#0063F5"/>
<path fill-rule="evenodd" clip-rule="evenodd" d="M16.7913 3.43153C17.2218 3.29418 17.6821 3.53182 17.8195 3.96231L23.8925 22.9963C24.0298 23.4268 23.7922 23.8871 23.3617 24.0245C22.9312 24.1618 22.4709 23.9242 22.3336 23.4937L16.2606 4.4597C16.1232 4.02921 16.3608 3.56889 16.7913 3.43153Z" fill="#0063F5"/>
<path fill-rule="evenodd" clip-rule="evenodd" d="M14.9178 17.25C14.9178 16.7981 15.2842 16.4318 15.736 16.4318H21.2C21.6519 16.4318 22.0182 16.7981 22.0182 17.25C22.0182 17.7019 21.6519 18.0682 21.2 18.0682H15.736C15.2842 18.0682 14.9178 17.7019 14.9178 17.25Z" fill="#0063F5"/>
<path fill-rule="evenodd" clip-rule="evenodd" d="M12.2177 7.62841C12.1296 7.58867 12.034 7.56814 11.9373 7.56818H6.71014C6.71008 7.56818 6.71019 7.56818 6.71014 7.56818C6.54411 7.56825 6.38365 7.6289 6.25915 7.73875C6.1347 7.84858 6.05457 8.00003 6.03381 8.1647C6.0338 8.1648 6.03382 8.1646 6.03381 8.1647L5.65884 11.1645C5.64678 11.2604 5.65521 11.3584 5.68369 11.4508C5.71216 11.5432 5.75997 11.6285 5.82394 11.701C5.88791 11.7735 5.96657 11.8316 6.05471 11.8714C6.14279 11.9112 6.23833 11.9318 6.33497 11.9318C6.33503 11.9318 6.33492 11.9318 6.33497 11.9318H11.562C11.7282 11.9319 11.8891 11.8712 12.0137 11.7612C12.1383 11.6512 12.2185 11.4995 12.2391 11.3345L12.6141 8.33454C12.6141 8.33453 12.6141 8.33455 12.6141 8.33454C12.6261 8.2386 12.6175 8.14118 12.589 8.0488C12.5605 7.9564 12.5126 7.87114 12.4486 7.79866C12.3846 7.72618 12.3059 7.66815 12.2177 7.62841ZM11.937 5.93182C12.2656 5.93173 12.5906 6.00154 12.8902 6.1366C13.1899 6.27171 13.4575 6.46903 13.6751 6.71545C13.8928 6.96188 14.0555 7.25178 14.1525 7.56591C14.2495 7.88004 14.2786 8.21122 14.2378 8.53745L13.8628 11.5375C13.7928 12.0983 13.5202 12.6142 13.0964 12.9882C12.6727 13.3621 12.1271 13.5683 11.562 13.5682C11.5619 13.5682 11.5621 13.5682 11.562 13.5682H6.33497C6.00619 13.5681 5.68101 13.4981 5.38135 13.3628C5.08168 13.2275 4.81423 13.03 4.59674 12.7835C4.37925 12.5369 4.2167 12.2469 4.11988 11.9326C4.02311 11.6186 3.99422 11.2876 4.03511 10.9615L4.41011 7.96151C4.48051 7.40123 4.75306 6.88539 5.17647 6.51177C5.59989 6.13815 6.14512 5.93193 6.70981 5.93182H11.937C11.9369 5.93182 11.9371 5.93182 11.937 5.93182Z" fill="#0063F5"/>
<path fill-rule="evenodd" clip-rule="evenodd" d="M6.06781 3.75001C6.06781 3.29814 6.43412 2.93182 6.88599 2.93182H12.136C12.5879 2.93182 12.9542 3.29814 12.9542 3.75001C12.9542 4.20187 12.5879 4.56819 12.136 4.56819H6.88599C6.43412 4.56819 6.06781 4.20187 6.06781 3.75001Z" fill="#0063F5"/>
<path fill-rule="evenodd" clip-rule="evenodd" d="M0.517822 18.75C0.517822 18.2981 0.884135 17.9318 1.336 17.9318H15.586C16.0379 17.9318 16.4042 18.2981 16.4042 18.75C16.4042 19.2019 16.0379 19.5682 15.586 19.5682H1.336C0.884135 19.5682 0.517822 19.2019 0.517822 18.75Z" fill="#0063F5"/>
</g>
<defs>
<clipPath id="clip0">
<rect width="24" height="24" fill="white"/>
</clipPath>
</defs>
</svg>
