<svg width="16" height="16" viewBox="0 0 16 16" fill="none" xmlns="http://www.w3.org/2000/svg">
<g clip-path="url(#clip0)">
<path d="M3.66667 5.66667C2.69453 5.66773 1.76252 6.05438 1.07511 6.74178C0.387707 7.42918 0.00105878 8.3612 0 9.33333C0 11.7033 3.03 15.2813 3.16 15.4333C3.22259 15.5065 3.30028 15.5653 3.38775 15.6056C3.47521 15.6459 3.57037 15.6667 3.66667 15.6667C3.76296 15.6667 3.85812 15.6459 3.94558 15.6056C4.03305 15.5653 4.11075 15.5065 4.17333 15.4333C4.302 15.282 7.33333 11.7073 7.33333 9.33333C7.33227 8.3612 6.94563 7.42918 6.25822 6.74178C5.57082 6.05438 4.6388 5.66773 3.66667 5.66667ZM3.66667 11C3.33703 11 3.0148 10.9023 2.74072 10.7191C2.46663 10.536 2.25301 10.2757 2.12687 9.97114C2.00072 9.6666 1.96772 9.33149 2.03202 9.00818C2.09633 8.68488 2.25507 8.38791 2.48816 8.15482C2.72124 7.92174 3.01821 7.763 3.34152 7.69869C3.66482 7.63438 3.99993 7.66739 4.30447 7.79354C4.60902 7.91968 4.86931 8.1333 5.05245 8.40738C5.23559 8.68147 5.33333 9.0037 5.33333 9.33333C5.33333 9.77536 5.15774 10.1993 4.84518 10.5118C4.53262 10.8244 4.10869 11 3.66667 11Z" fill="#0063F5"/>
<path d="M13 0.333334C12.2046 0.334216 11.4421 0.65057 10.8797 1.21299C10.3172 1.77541 10.0009 2.53796 10 3.33333C10 5.44733 12.652 8.12333 12.764 8.236C12.795 8.26704 12.8317 8.29167 12.8722 8.30848C12.9127 8.32528 12.9562 8.33393 13 8.33393C13.0438 8.33393 13.0873 8.32528 13.1278 8.30848C13.1683 8.29167 13.205 8.26704 13.236 8.236C13.348 8.12333 16 5.44733 16 3.33333C15.9991 2.53796 15.6828 1.77541 15.1203 1.21299C14.5579 0.65057 13.7954 0.334216 13 0.333334ZM13 4.33333C12.8022 4.33333 12.6089 4.27469 12.4444 4.1648C12.28 4.05492 12.1518 3.89874 12.0761 3.71602C12.0004 3.53329 11.9806 3.33222 12.0192 3.13824C12.0578 2.94426 12.153 2.76608 12.2929 2.62623C12.4327 2.48637 12.6109 2.39113 12.8049 2.35255C12.9989 2.31396 13.2 2.33377 13.3827 2.40945C13.5654 2.48514 13.7216 2.61331 13.8315 2.77776C13.9414 2.94221 14 3.13555 14 3.33333C14 3.59855 13.8946 3.8529 13.7071 4.04044C13.5196 4.22798 13.2652 4.33333 13 4.33333Z" fill="#0063F5"/>
<path d="M11.458 9.762L6.65804 13.9087C6.5242 14.0242 6.44173 14.1882 6.42879 14.3645C6.41585 14.5409 6.47349 14.7152 6.58904 14.849C6.70459 14.9828 6.86857 15.0653 7.04492 15.0783C7.22126 15.0912 7.39553 15.0335 7.52937 14.918L12.3294 10.7707C12.3992 10.7146 12.4571 10.6451 12.4995 10.5662C12.5419 10.4873 12.5679 10.4006 12.5761 10.3114C12.5843 10.2222 12.5744 10.1323 12.547 10.047C12.5197 9.96173 12.4754 9.88282 12.4169 9.81502C12.3584 9.74722 12.2868 9.6919 12.2064 9.65238C12.126 9.61286 12.0385 9.58994 11.9491 9.58499C11.8596 9.58004 11.7701 9.59316 11.6859 9.62358C11.6016 9.65399 11.5244 9.70107 11.4587 9.762H11.458Z" fill="#0063F5"/>
</g>
<defs>
<clipPath id="clip0">
<rect width="16" height="16" fill="white"/>
</clipPath>
</defs>
</svg>
